<svg width="46" height="46" viewBox="0 0 46 46" fill="none" xmlns="http://www.w3.org/2000/svg">
<path d="M23 1.91667C17.4675 1.86045 12.139 4.00317 8.18559 7.87391C4.23219 11.7446 1.97737 17.0267 1.91669 22.5592C1.938 26.9314 3.34449 31.1844 5.93414 34.7073C8.52379 38.2302 12.1633 40.8417 16.33 42.1667C17.3842 42.3583 17.7675 41.7258 17.7675 41.17C17.7675 40.6142 17.7675 39.3875 17.7675 37.6625C11.9025 38.9083 10.6567 34.9025 10.6567 34.9025C10.2663 33.645 9.43622 32.57 8.31835 31.8742C6.40169 30.6092 8.47169 30.6283 8.47169 30.6283C9.13419 30.7169 9.76803 30.9543 10.3257 31.3228C10.8834 31.6912 11.3504 32.1812 11.6917 32.7558C12.2865 33.7872 13.2625 34.5439 14.4095 34.8629C15.5566 35.1819 16.7831 35.0379 17.825 34.4617C17.9322 33.4121 18.4075 32.4343 19.1667 31.7017C14.49 31.1842 9.58335 29.4208 9.58335 21.505C9.54153 19.4401 10.3045 17.44 11.7109 15.9275C11.0704 14.1547 11.146 12.2021 11.9217 10.4842C11.9217 10.4842 13.7042 9.92834 17.6717 12.5925C21.1253 11.6722 24.7597 11.6722 28.2134 12.5925C32.2384 9.92834 33.9634 10.4842 33.9634 10.4842C34.7391 12.2021 34.8147 14.1547 34.1742 15.9275C35.6132 17.4122 36.4176 19.399 36.4167 21.4667C36.4167 29.4017 31.4717 31.1458 26.8334 31.6633C27.3412 32.1564 27.7336 32.7559 27.9821 33.4187C28.2307 34.0816 28.3293 34.7912 28.2709 35.4967V41.1508C28.2709 41.1508 28.6542 42.3583 29.7084 42.1475C33.8632 40.8143 37.4905 38.2022 40.0721 34.6843C42.6538 31.1664 44.0577 26.9226 44.0834 22.5592C44.0227 17.0267 41.7679 11.7446 37.8145 7.87391C33.861 4.00317 28.5326 1.86045 23 1.91667Z" fill="white"/>
</svg>
